<svg xmlns="http://www.w3.org/2000/svg" viewBox="0 0 640 360" role="img" aria-label="List view layout preview">
  <defs>
    <linearGradient id="image" x1="0" y1="0" x2="1" y2="1">
      <stop offset="0" stop-color="#86efac"/>
      <stop offset="0.55" stop-color="#38bdf8"/>
      <stop offset="1" stop-color="#fef3c7"/>
    </linearGradient>
  </defs>
  <rect width="640" height="360" fill="#f8fafc"/>
  <rect x="28" y="28" width="584" height="52" fill="#ffffff" stroke="#cbd5e1"/>
  <rect x="52" y="46" width="132" height="10" rx="5" fill="#16a34a" opacity="0.56"/>
  <rect x="52" y="62" width="214" height="8" rx="4" fill="#0f172a" opacity="0.72"/>
  <rect x="468" y="50" width="96" height="12" rx="6" fill="#334155" opacity="0.62"/>
  <rect x="28" y="98" width="168" height="232" fill="url(#image)"/>
  <circle cx="84" cy="154" r="32" fill="#ffffff" opacity="0.42"/>
  <path d="M32 292 C75 240 116 258 156 210 C172 190 184 178 196 170 L196 330 L28 330 Z" fill="#0f172a" opacity="0.16"/>
  <rect x="216" y="98" width="396" height="232" fill="#ffffff" stroke="#cbd5e1"/>
  <g>
    <rect x="236" y="118" width="154" height="24" fill="#0f172a"/>
    <rect x="236" y="158" width="346" height="44" fill="#ffffff" stroke="#dbe3ee"/>
    <rect x="236" y="158" width="8" height="44" fill="#16a34a"/>
    <rect x="258" y="172" width="136" height="10" rx="5" fill="#0f172a" opacity="0.86"/>
    <rect x="258" y="188" width="178" height="6" rx="3" fill="#64748b" opacity="0.48"/>
    <rect x="520" y="168" width="42" height="9" rx="4" fill="#64748b" opacity="0.48"/>
    <rect x="506" y="184" width="56" height="9" rx="4" fill="#0f172a" opacity="0.78"/>
    <rect x="236" y="214" width="346" height="44" fill="#ffffff" stroke="#dbe3ee"/>
    <rect x="236" y="214" width="8" height="44" fill="#65a30d"/>
    <rect x="258" y="228" width="154" height="10" rx="5" fill="#0f172a" opacity="0.86"/>
    <rect x="258" y="244" width="150" height="6" rx="3" fill="#64748b" opacity="0.48"/>
    <rect x="520" y="224" width="42" height="9" rx="4" fill="#64748b" opacity="0.48"/>
    <rect x="506" y="240" width="56" height="9" rx="4" fill="#0f172a" opacity="0.78"/>
    <rect x="236" y="278" width="118" height="24" fill="#0f172a"/>
    <rect x="370" y="278" width="212" height="11" rx="5" fill="#64748b" opacity="0.32"/>
    <rect x="370" y="296" width="166" height="11" rx="5" fill="#64748b" opacity="0.22"/>
  </g>
</svg>
