<svg xmlns="http://www.w3.org/2000/svg" viewBox="0 0 640 360" role="img" aria-label="Card view layout preview">
  <defs>
    <linearGradient id="bg" x1="0" y1="0" x2="1" y2="1">
      <stop offset="0" stop-color="#e0f2fe"/>
      <stop offset="1" stop-color="#f8fafc"/>
    </linearGradient>
    <filter id="shadow" x="-20%" y="-20%" width="140%" height="140%">
      <feDropShadow dx="0" dy="10" stdDeviation="10" flood-color="#0f172a" flood-opacity="0.16"/>
    </filter>
  </defs>
  <rect width="640" height="360" fill="url(#bg)"/>
  <rect x="32" y="30" width="576" height="58" rx="16" fill="#ffffff" opacity="0.86" stroke="#cbd5e1"/>
  <rect x="56" y="48" width="150" height="12" rx="6" fill="#16a34a" opacity="0.52"/>
  <rect x="56" y="66" width="250" height="10" rx="5" fill="#0f172a" opacity="0.76"/>
  <rect x="452" y="52" width="116" height="14" rx="7" fill="#334155" opacity="0.62"/>
  <g filter="url(#shadow)">
    <rect x="42" y="112" width="172" height="206" rx="18" fill="#ffffff"/>
    <rect x="234" y="112" width="172" height="206" rx="18" fill="#ffffff"/>
    <rect x="426" y="112" width="172" height="206" rx="18" fill="#ffffff"/>
  </g>
  <g>
    <rect x="42" y="112" width="172" height="9" rx="4" fill="#16a34a"/>
    <rect x="234" y="112" width="172" height="9" rx="4" fill="#65a30d"/>
    <rect x="426" y="112" width="172" height="9" rx="4" fill="#0284c7"/>
    <rect x="62" y="140" width="74" height="18" rx="9" fill="#dcfce7"/>
    <rect x="254" y="140" width="92" height="18" rx="9" fill="#ecfccb"/>
    <rect x="446" y="140" width="72" height="18" rx="9" fill="#e0f2fe"/>
    <rect x="62" y="176" width="118" height="13" rx="6" fill="#0f172a" opacity="0.86"/>
    <rect x="254" y="176" width="104" height="13" rx="6" fill="#0f172a" opacity="0.86"/>
    <rect x="446" y="176" width="122" height="13" rx="6" fill="#0f172a" opacity="0.86"/>
    <rect x="62" y="202" width="124" height="8" rx="4" fill="#64748b" opacity="0.58"/>
    <rect x="62" y="218" width="94" height="8" rx="4" fill="#64748b" opacity="0.44"/>
    <rect x="254" y="202" width="116" height="8" rx="4" fill="#64748b" opacity="0.58"/>
    <rect x="254" y="218" width="82" height="8" rx="4" fill="#64748b" opacity="0.44"/>
    <rect x="446" y="202" width="126" height="8" rx="4" fill="#64748b" opacity="0.58"/>
    <rect x="446" y="218" width="88" height="8" rx="4" fill="#64748b" opacity="0.44"/>
    <g fill="#f1f5f9" stroke="#cbd5e1">
      <rect x="62" y="250" width="38" height="36" rx="8"/>
      <rect x="108" y="250" width="38" height="36" rx="8"/>
      <rect x="154" y="250" width="38" height="36" rx="8"/>
      <rect x="254" y="250" width="38" height="36" rx="8"/>
      <rect x="300" y="250" width="38" height="36" rx="8"/>
      <rect x="346" y="250" width="38" height="36" rx="8"/>
      <rect x="446" y="250" width="38" height="36" rx="8"/>
      <rect x="492" y="250" width="38" height="36" rx="8"/>
      <rect x="538" y="250" width="38" height="36" rx="8"/>
    </g>
  </g>
</svg>
