<svg xmlns="http://www.w3.org/2000/svg" viewBox="0 0 256 256" role="img" aria-label="TL-1 Menu">
  <defs>
    <linearGradient id="bg" x1="0" y1="0" x2="1" y2="1">
      <stop offset="0" stop-color="#dcfce7"/>
      <stop offset="0.58" stop-color="#e0f2fe"/>
      <stop offset="1" stop-color="#fef3c7"/>
    </linearGradient>
  </defs>
  <rect width="256" height="256" rx="42" fill="url(#bg)"/>
  <rect x="38" y="34" width="180" height="188" rx="26" fill="#ffffff"/>
  <rect x="38" y="34" width="180" height="54" rx="26" fill="#0f172a"/>
  <path d="M38 62h180v28H38z" fill="#0f172a"/>
  <rect x="62" y="55" width="88" height="12" rx="6" fill="#dcfce7"/>
  <circle cx="181" cy="61" r="10" fill="#38bdf8"/>
  <circle cx="205" cy="61" r="10" fill="#fef3c7"/>

  <rect x="60" y="108" width="136" height="28" rx="10" fill="#f8fafc" stroke="#cbd5e1" stroke-width="4"/>
  <rect x="60" y="154" width="136" height="28" rx="10" fill="#f8fafc" stroke="#cbd5e1" stroke-width="4"/>
  <rect x="60" y="200" width="136" height="28" rx="10" fill="#f8fafc" stroke="#cbd5e1" stroke-width="4"/>

  <rect x="60" y="108" width="14" height="28" rx="7" fill="#16a34a"/>
  <rect x="60" y="154" width="14" height="28" rx="7" fill="#0284c7"/>
  <rect x="60" y="200" width="14" height="28" rx="7" fill="#65a30d"/>

  <rect x="88" y="118" width="64" height="8" rx="4" fill="#0f172a"/>
  <rect x="88" y="164" width="76" height="8" rx="4" fill="#0f172a"/>
  <rect x="88" y="210" width="58" height="8" rx="4" fill="#0f172a"/>

  <rect x="168" y="115" width="18" height="14" rx="7" fill="#dcfce7"/>
  <rect x="168" y="161" width="18" height="14" rx="7" fill="#e0f2fe"/>
  <rect x="168" y="207" width="18" height="14" rx="7" fill="#ecfccb"/>
</svg>
