<svg xmlns="http://www.w3.org/2000/svg" viewBox="0 0 24 24" fill="none" stroke="currentColor" stroke-width="2" stroke-linecap="round" stroke-linejoin="round">
  <symbol id="icon" viewBox="0 0 24 24">
    <path d="M12.2 2h-.4a2 2 0 0 0-2 2v.2a2 2 0 0 1-1 1.7l-.4.2a2 2 0 0 1-2 0l-.2-.1a2 2 0 0 0-2.7.8l-.2.4A2 2 0 0 0 4 9.9l.2.1a2 2 0 0 1 1 1.7v.6a2 2 0 0 1-1 1.7l-.2.1a2 2 0 0 0-.7 2.7l.2.4a2 2 0 0 0 2.7.8l.2-.1a2 2 0 0 1 2 0l.4.2a2 2 0 0 1 1 1.7v.2a2 2 0 0 0 2 2h.4a2 2 0 0 0 2-2v-.2a2 2 0 0 1 1-1.7l.4-.2a2 2 0 0 1 2 0l.2.1a2 2 0 0 0 2.7-.8l.2-.4a2 2 0 0 0-.7-2.7l-.2-.1a2 2 0 0 1-1-1.7v-.6a2 2 0 0 1 1-1.7l.2-.1a2 2 0 0 0 .7-2.7l-.2-.4a2 2 0 0 0-2.7-.8l-.2.1a2 2 0 0 1-2 0l-.4-.2a2 2 0 0 1-1-1.7V4a2 2 0 0 0-2-2z"></path>
    <circle cx="12" cy="12" r="3"></circle>
  </symbol>
  <use href="#icon"></use>
</svg>
