<!-- Generated from @rsuite/icon-font by scripts/build-admin-icons.mjs. Do not edit directly. -->
<svg width="1em" height="1em" viewBox="0 0 16 16" fill="currentColor" aria-hidden="true" focusable="false" xmlns="http://www.w3.org/2000/svg"><path d="M5.5 7a1.5 1.5 0 11-.001 3.001A1.5 1.5 0 015.5 7zm0 1a.5.5 0 100 1 .5.5 0 000-1zm5-5a1.5 1.5 0 11-.001 3.001A1.5 1.5 0 0110.5 3zm0 1a.5.5 0 100 1 .5.5 0 000-1zM5.5 3a.5.5 0 01.5.5v2a.5.5 0 01-1 0v-2a.5.5 0 01.5-.5zM5.5 11a.5.5 0 01.5.5v1a.5.5 0 01-1 0v-1a.5.5 0 01.5-.5zM10.5 7a.5.5 0 01.5.5v5a.5.5 0 01-1 0v-5a.5.5 0 01.5-.5z"></path><path d="M14 15a1 1 0 001-1V2a1 1 0 00-1-1H2a1 1 0 00-1 1v12a1 1 0 001 1h12zm0 1H2a2 2 0 01-2-2V2a2 2 0 012-2h12a2 2 0 012 2v12a2 2 0 01-2 2z"></path></svg>
