<svg xmlns="http://www.w3.org/2000/svg" viewBox="0 0 24 24" role="img" aria-hidden="true">
  <rect width="24" height="24" rx="6" fill="#ea580c" opacity=".14"/>
  <path d="M9.1 7.2c-.8-.4-1.2-1.5-.8-2.4.4-.9 1.6-1.3 2.5-.7.2-1.1 1.1-1.9 2.3-1.9s2.1.9 2.2 2c.9-.4 2 .1 2.4 1 .4.9 0 2-1 2.4" fill="#dc2626"/>
  <path d="M5.8 13.1c0-4 3-6.9 7.1-6.9 3.6 0 6.1 2.3 6.1 5.6 0 3.8-2.9 6.7-6.8 6.7-3.9 0-6.4-2.2-6.4-5.4Z" fill="#fff7ed"/>
  <path d="M7.2 14.6c.9 1.8 2.8 2.9 5.1 2.9 2.4 0 4.4-1.4 5.2-3.5" fill="none" stroke="#fdba74" stroke-width="1" stroke-linecap="round" opacity=".85"/>
  <circle cx="14.4" cy="10.5" r=".9" fill="#111827"/>
  <path d="M17.4 11.6h4.1l-3.2 2.4-1-2.4Z" fill="#facc15"/>
  <path d="M17.4 11.6h4.1" fill="none" stroke="#ca8a04" stroke-width=".7" stroke-linecap="round"/>
  <path d="M15.3 14.3c1.1.4 1.7 1.5 1.3 2.5-.4 1-1.6 1.4-2.5.8-.9-.6-.8-1.8.1-2.7" fill="#dc2626"/>
  <path d="M7.7 10c1-1.5 2.8-2.4 5-2.4" fill="none" stroke="#ffffff" stroke-width="1.3" stroke-linecap="round" opacity=".95"/>
</svg>
