<svg xmlns="http://www.w3.org/2000/svg" viewBox="0 0 256 256" role="img">
  <circle cx="92" cy="86" r="46" fill="#ffd45a"/>
  <g fill="none" stroke="#fff7c7" stroke-linecap="round" stroke-width="10">
    <path d="M92 22v22M92 128v22M28 86h22M134 86h22M47 41l16 16M121 115l16 16M137 41l-16 16M63 115l-16 16"/>
  </g>
  <path d="M75 184h116a42 42 0 0 0-8-83 58 58 0 0 0-109-17h-2a50 50 0 0 0 3 100z" fill="#eef4f8"/>
  <path d="M76 184h115a42 42 0 0 0 39-28c-20 10-46 14-78 14H51c7 9 15 14 25 14z" fill="#d8e3eb"/>
</svg>
