<svg xmlns="http://www.w3.org/2000/svg" viewBox="0 0 256 256" role="img" aria-label="Flip Clock">
  <rect width="256" height="256" rx="44" fill="#101827"/>
  <g fill="#ffffff" stroke="#ffffff" stroke-opacity="0.28" stroke-width="2">
    <rect x="24" y="82" width="42" height="92" rx="8" fill-opacity="0.14"/>
    <rect x="74" y="82" width="42" height="92" rx="8" fill-opacity="0.14"/>
    <rect x="140" y="82" width="42" height="92" rx="8" fill-opacity="0.14"/>
    <rect x="190" y="82" width="42" height="92" rx="8" fill-opacity="0.14"/>
  </g>
  <g fill="#ffffff" opacity="0.16">
    <path d="M28 86h34v40H28zM78 86h34v40H78zM144 86h34v40h-34zM194 86h34v40h-34z"/>
  </g>
  <g fill="#000000" opacity="0.2">
    <path d="M28 130h34v40H28zM78 130h34v40H78zM144 130h34v40h-34zM194 130h34v40h-34z"/>
  </g>
  <g stroke="#020617" stroke-width="4" stroke-linecap="round">
    <path d="M26 128h38M76 128h38M142 128h38M192 128h38"/>
  </g>
  <g fill="none" stroke="#f8fafc" stroke-width="8" stroke-linecap="round" stroke-linejoin="round">
    <path d="M39 106h11v46M35 152h26"/>
    <path d="M84 111c4-4 10-6 16-5 7 1 12 7 13 14 0 9-6 15-15 22l-13 11h29"/>
    <path d="M153 106h24l-14 18c9 0 16 6 16 15 0 10-8 16-19 16-6 0-11-2-15-5"/>
    <path d="M219 155v-49l-28 34h36"/>
  </g>
  <circle cx="128" cy="116" r="5" fill="#f8fafc" opacity="0.9"/>
  <circle cx="128" cy="144" r="5" fill="#f8fafc" opacity="0.9"/>
</svg>
