<svg xmlns="http://www.w3.org/2000/svg" viewBox="0 0 640 420" aria-hidden="true">
  <g fill="#ffffff" opacity="0.72">
    <circle cx="52" cy="48" r="3.8"/>
    <circle cx="158" cy="116" r="2.4"/>
    <circle cx="248" cy="42" r="3"/>
    <circle cx="372" cy="98" r="4.2"/>
    <circle cx="540" cy="54" r="2.6"/>
    <circle cx="608" cy="148" r="3.4"/>
    <circle cx="94" cy="208" r="2.8"/>
    <circle cx="214" cy="268" r="4"/>
    <circle cx="330" cy="220" r="2.5"/>
    <circle cx="470" cy="284" r="3.6"/>
    <circle cx="586" cy="352" r="2.8"/>
    <circle cx="126" cy="372" r="3.2"/>
  </g>
  <g fill="none" stroke="#ffffff" stroke-linecap="round" stroke-width="2.4" opacity="0.5">
    <path d="M500 168v20M490 178h20M493 171l14 14M507 171l-14 14"/>
    <path d="M282 156v16M274 164h16M276 158l12 12M288 158l-12 12" opacity="0.75"/>
    <path d="M58 292v16M50 300h16M52 294l12 12M64 294l-12 12" opacity="0.65"/>
  </g>
</svg>
