<svg xmlns="http://www.w3.org/2000/svg" viewBox="0 0 256 256" role="img" aria-label="Weather">
  <defs>
    <linearGradient id="bg" x1="0" y1="0" x2="1" y2="1">
      <stop offset="0" stop-color="#bae6fd"/>
      <stop offset="0.58" stop-color="#e0f2fe"/>
      <stop offset="1" stop-color="#fef3c7"/>
    </linearGradient>
    <linearGradient id="panel" x1="0" y1="0" x2="1" y2="1">
      <stop offset="0" stop-color="#0f172a"/>
      <stop offset="1" stop-color="#164e63"/>
    </linearGradient>
  </defs>
  <rect width="256" height="256" rx="42" fill="url(#bg)"/>
  <circle cx="184" cy="70" r="36" fill="#facc15"/>
  <g stroke="#fde68a" stroke-width="10" stroke-linecap="round">
    <path d="M184 18v18"/>
    <path d="M184 104v18"/>
    <path d="M132 70h18"/>
    <path d="M218 70h18"/>
    <path d="M147 33l13 13"/>
    <path d="M208 94l13 13"/>
    <path d="M221 33l-13 13"/>
  </g>
  <path d="M58 147h114a35 35 0 0 0-34-47 46 46 0 0 0-86 16h-2a25 25 0 0 0 8 49z" fill="#ffffff"/>
  <path d="M58 147h114a35 35 0 0 0-34-47 46 46 0 0 0-86 16h-2a25 25 0 0 0 8 49z" fill="#e2e8f0" opacity=".42"/>
  <g stroke="#0284c7" stroke-width="9" stroke-linecap="round">
    <path d="M82 184l-10 18"/>
    <path d="M122 184l-10 18"/>
    <path d="M162 184l-10 18"/>
  </g>
  <rect x="37" y="34" width="78" height="54" rx="18" fill="url(#panel)"/>
  <path d="M61 67c0 7 5 12 13 12s13-5 13-12V52c0-7-5-12-13-12s-13 5-13 12v15z" fill="none" stroke="#f8fafc" stroke-width="8" stroke-linecap="round"/>
  <path d="M88 47h12" stroke="#67e8f9" stroke-width="7" stroke-linecap="round"/>
  <circle cx="101" cy="47" r="5" fill="none" stroke="#67e8f9" stroke-width="5"/>
  <path d="M54 222h148" stroke="#0f172a" stroke-width="10" stroke-linecap="round" opacity=".14"/>
</svg>
